<svg width="25" height="25" viewBox="0 0 25 25" fill="none" xmlns="http://www.w3.org/2000/svg">
<g id="Group">
<g id="Group_2">
<g id="Group_3">
<path id="Vector" d="M12.35 8.925C13.95 9 14.3625 10.3625 14.3875 11H16.625C16.525 8.525 14.7625 7.0125 12.3125 7.0125C9.55 7.0125 7.5 8.75 7.5 12.675C7.5 15.1 8.6625 17.975 12.3 17.975C15.075 17.975 16.5625 15.9125 16.6 14.2875H14.3625C14.325 15.025 13.8 16.0125 12.325 16.0875C10.6875 16.0375 10 14.7625 10 12.675C10 9.0625 11.6 8.95 12.35 8.925ZM12.5 0C5.6 0 0 5.6 0 12.5C0 19.4 5.6 25 12.5 25C19.4 25 25 19.4 25 12.5C25 5.6 19.4 0 12.5 0ZM12.5 22.5C6.9875 22.5 2.5 18.0125 2.5 12.5C2.5 6.9875 6.9875 2.5 12.5 2.5C18.0125 2.5 22.5 6.9875 22.5 12.5C22.5 18.0125 18.0125 22.5 12.5 22.5Z" fill="white"/>
</g>
</g>
</g>
</svg>
