<svg width="96" height="96" viewBox="0 0 96 96" fill="none" xmlns="http://www.w3.org/2000/svg">
<g id="New releases" clip-path="url(#clip0_5_51)">
<rect width="96" height="96" fill="#CE181E"/>
<path id="Vector" d="M92 48L82.24 36.88L83.6 22.16L69.16 18.88L61.6 6.16L48 12L34.4 6.16L26.84 18.88L12.4 22.12L13.76 36.84L4 48L13.76 59.12L12.4 73.88L26.84 77.16L34.4 89.88L48 84L61.6 89.84L69.16 77.12L83.6 73.84L82.24 59.12L92 48ZM52 68H44V60H52V68ZM52 52H44V28H52V52Z" fill="white"/>
</g>
<defs>
<clipPath id="clip0_5_51">
<rect width="96" height="96" fill="white"/>
</clipPath>
</defs>
</svg>
